<svg aria-hidden="true" style="position: absolute; width: 0; height: 0; overflow: hidden;" version="1.1" xmlns="http://www.w3.org/2000/svg" xmlns:xlink="http://www.w3.org/1999/xlink">
<defs>
<symbol id="icon-event" viewBox="0 0 32 32">
<path fill="#fff" style="fill: var(--color1, #fff)" d="M16 1.667c-2.437 0-4.452 0.215-6.003 0.476l-0.179 0.031c-1.347 0.225-2.467 0.413-3.343 1.491-0.56 0.692-0.743 1.44-0.784 2.273l-0.656 0.219c-0.617 0.205-1.16 0.387-1.588 0.587-0.464 0.216-0.889 0.493-1.215 0.945-0.325 0.451-0.455 0.943-0.513 1.451-0.053 0.471-0.053 1.040-0.053 1.692v0.193c0 0.536 0 1.009 0.040 1.405 0.043 0.428 0.137 0.845 0.373 1.248 0.239 0.404 0.556 0.689 0.911 0.935 0.327 0.227 0.74 0.457 1.209 0.717l3.52 1.956c0.72 1.415 1.708 2.676 3.067 3.587 1.183 0.795 2.603 1.293 4.284 1.425-0.047 0.117-0.071 0.243-0.071 0.369v2.333h-1.907c-0.539 0-1.062 0.187-1.479 0.529s-0.703 0.818-0.809 1.347l-0.292 1.457h-2.513c-0.265 0-0.52 0.105-0.707 0.293s-0.293 0.442-0.293 0.707c0 0.265 0.105 0.52 0.293 0.707s0.442 0.293 0.707 0.293h16c0.265 0 0.519-0.105 0.707-0.293s0.293-0.442 0.293-0.707-0.105-0.52-0.293-0.707c-0.188-0.188-0.442-0.293-0.707-0.293h-2.513l-0.292-1.457c-0.106-0.529-0.391-1.005-0.809-1.347s-0.94-0.529-1.479-0.529h-1.907v-2.333c0-0.126-0.024-0.252-0.071-0.369 1.681-0.133 3.101-0.631 4.284-1.424 1.36-0.912 2.347-2.173 3.067-3.588l3.52-1.956c0.469-0.26 0.883-0.491 1.209-0.717 0.353-0.245 0.672-0.531 0.909-0.933 0.237-0.404 0.333-0.821 0.375-1.249 0.040-0.396 0.040-0.869 0.040-1.405v-0.193c0-0.651 0-1.221-0.053-1.692-0.059-0.508-0.187-1-0.513-1.451-0.325-0.452-0.751-0.729-1.213-0.947-0.431-0.2-0.972-0.38-1.589-0.585l-0.656-0.219c-0.040-0.835-0.223-1.581-0.784-2.273-0.875-1.079-1.995-1.267-3.341-1.491l-0.18-0.031c-1.984-0.325-3.992-0.484-6.003-0.476zM19.447 28.333h-6.893l0.213-1.065c0.015-0.076 0.056-0.144 0.115-0.192s0.134-0.076 0.211-0.076h5.813c0.077 0 0.152 0.027 0.211 0.076s0.1 0.117 0.115 0.192l0.213 1.065zM5.718 8.037l0.019-0.007c0.096 2.027 0.324 4.267 0.895 6.36l-1.421-0.788c-0.519-0.289-0.844-0.471-1.079-0.633-0.216-0.151-0.287-0.24-0.325-0.307-0.040-0.067-0.083-0.171-0.109-0.432-0.028-0.416-0.038-0.834-0.029-1.251v-0.097c0-0.719 0.001-1.173 0.040-1.517 0.037-0.317 0.096-0.436 0.149-0.508 0.052-0.073 0.145-0.167 0.435-0.301 0.315-0.147 0.747-0.291 1.427-0.519zM26.264 8.029l0.019 0.005c0.68 0.228 1.112 0.373 1.427 0.52 0.289 0.135 0.383 0.228 0.435 0.301 0.053 0.072 0.112 0.191 0.149 0.508 0.039 0.344 0.040 0.799 0.040 1.517v0.097c0 0.593-0.001 0.965-0.029 1.251-0.027 0.261-0.069 0.365-0.109 0.432-0.039 0.067-0.109 0.156-0.325 0.307-0.235 0.163-0.56 0.344-1.079 0.633l-1.42 0.788c0.569-2.093 0.799-4.333 0.893-6.36zM10.331 4.115c1.874-0.307 3.77-0.456 5.669-0.448 2.32 0 4.223 0.204 5.669 0.448 1.609 0.272 1.947 0.373 2.303 0.811 0.349 0.429 0.383 0.837 0.311 2.644-0.12 3.011-0.517 6.261-1.747 8.733-0.608 1.219-1.403 2.216-2.436 2.909-1.028 0.689-2.355 1.121-4.1 1.121s-3.071-0.432-4.099-1.121c-1.035-0.693-1.829-1.691-2.436-2.911-1.231-2.471-1.627-5.72-1.747-8.733-0.072-1.805-0.040-2.213 0.311-2.643 0.355-0.437 0.692-0.539 2.301-0.811z"></path>
</symbol>
<symbol id="icon-date" viewBox="0 0 32 32">
<path fill="#fff" style="fill: var(--color1, #fff)" d="M16 3.667c-6.811 0-12.333 5.522-12.333 12.333s5.522 12.333 12.333 12.333 12.333-5.522 12.333-12.333c0-6.812-5.522-12.333-12.333-12.333zM1.667 16c0-7.916 6.417-14.333 14.333-14.333s14.333 6.417 14.333 14.333c0 7.916-6.417 14.333-14.333 14.333s-14.333-6.417-14.333-14.333zM16 7c0.552 0 1 0.448 1 1v7.382l4.78 2.39c0.494 0.247 0.694 0.848 0.447 1.342s-0.848 0.694-1.342 0.447l-5.333-2.667c-0.339-0.169-0.553-0.516-0.553-0.894v-8c0-0.552 0.448-1 1-1z"></path>
</symbol>
<symbol id="icon-drivers" viewBox="0 0 32 32">
<path fill="#fff" style="fill: var(--color1, #fff)" d="M16 5c-2.26 0-4.471 0.745-6.328 2.14-1.858 1.396-3.272 3.377-4.037 5.677s-0.841 4.798-0.216 7.147c0.593 2.227 1.786 4.207 3.418 5.703h14.325c1.125-1.031 2.042-2.293 2.697-3.707-3.094-0.173-5.877-0.899-8.328-2.201-2.523-1.34-4.13-3.613-4.861-6.677zM28.328 21.114c0.067-0.21 0.128-0.422 0.185-0.636 0.726-2.725 0.638-5.621-0.251-8.293s-2.539-4.995-4.733-6.644c-2.195-1.649-4.826-2.54-7.529-2.541s-5.334 0.891-7.529 2.541c-2.194 1.649-3.845 3.972-4.734 6.644s-0.976 5.568-0.251 8.293c0.726 2.726 2.231 5.155 4.32 6.948 0.181 0.156 0.412 0.241 0.651 0.241h15.084c0.239 0 0.47-0.086 0.651-0.241 1.823-1.565 3.201-3.614 4.005-5.922 0.068-0.117 0.114-0.249 0.13-0.39zM26.574 19.989c-3.1-0.094-5.793-0.769-8.104-1.997-1.936-1.028-3.233-2.774-3.854-5.375-0.017-0.069-0.018-0.143-0.004-0.213s0.042-0.132 0.078-0.182c0.036-0.050 0.079-0.084 0.121-0.106s0.084-0.031 0.124-0.032c-0 0 0 0 0 0h11.161c0.097 0.24 0.188 0.485 0.27 0.733 0.765 2.3 0.841 4.798 0.216 7.147-0.002 0.009-0.005 0.017-0.007 0.025zM25.057 10.083h-10.125c-0.365 0.001-0.723 0.090-1.046 0.258s-0.599 0.409-0.811 0.7c-0.213 0.291-0.357 0.625-0.426 0.977s-0.062 0.715 0.021 1.064zM25.057 10.083c-0.737-1.141-1.659-2.14-2.73-2.944-1.857-1.395-4.068-2.139-6.328-2.14z"></path>
</symbol>
<symbol id="icon-game" viewBox="0 0 32 32">
<path fill="#fff" style="fill: var(--color1, #fff)" d="M11.025 3.99c1.577-0.653 3.268-0.99 4.975-0.99s3.398 0.336 4.975 0.99c1.577 0.653 3.010 1.611 4.218 2.818s2.165 2.64 2.818 4.217c0.653 1.577 0.99 3.268 0.99 4.975s-0.336 3.398-0.99 4.975c-0.653 1.577-1.611 3.010-2.818 4.218s-2.64 2.165-4.218 2.818c-1.577 0.653-3.268 0.99-4.975 0.99s-3.398-0.336-4.975-0.99c-1.577-0.653-3.010-1.611-4.218-2.818s-2.165-2.64-2.818-4.218c-0.653-1.577-0.99-3.268-0.99-4.975s0.336-3.398 0.99-4.975c0.653-1.577 1.611-3.010 2.818-4.218s2.64-2.165 4.218-2.818zM16 5c-1.445 0-2.875 0.285-4.21 0.837s-2.547 1.363-3.569 2.385c-1.021 1.021-1.832 2.234-2.385 3.569-0.116 0.28-0.22 0.565-0.313 0.853l7.036 2.085c0.182-0.492 0.469-0.943 0.846-1.321 0.688-0.688 1.62-1.074 2.593-1.074s1.905 0.386 2.593 1.074c0.378 0.378 0.665 0.829 0.846 1.321l7.036-2.085c-0.092-0.288-0.197-0.573-0.313-0.853-0.553-1.335-1.363-2.547-2.384-3.569s-2.234-1.832-3.569-2.385c-1.335-0.553-2.765-0.837-4.21-0.837zM26.911 14.6l-7.326 2.171c-0.147 0.685-0.489 1.319-0.992 1.822-0.446 0.446-0.996 0.766-1.593 0.935v7.427c1.102-0.101 2.184-0.367 3.21-0.792 1.334-0.553 2.547-1.363 3.569-2.384s1.832-2.234 2.384-3.569c0.553-1.335 0.837-2.765 0.837-4.21 0-0.469-0.030-0.936-0.089-1.4zM15 26.954v-7.427c-0.597-0.169-1.146-0.489-1.593-0.935-0.503-0.503-0.845-1.137-0.992-1.822l-7.326-2.171c-0.059 0.463-0.089 0.931-0.089 1.4 0 1.445 0.285 2.875 0.837 4.21s1.363 2.547 2.385 3.569 2.234 1.832 3.569 2.384c1.026 0.425 2.108 0.691 3.21 0.792zM16 14.333c-0.442 0-0.866 0.176-1.179 0.488s-0.488 0.736-0.488 1.179c0 0.442 0.176 0.866 0.488 1.179s0.736 0.488 1.179 0.488c0.442 0 0.866-0.176 1.179-0.488s0.488-0.736 0.488-1.179c0-0.442-0.176-0.866-0.488-1.179s-0.736-0.488-1.179-0.488z"></path>
</symbol>
</defs>
</svg>
