<svg aria-hidden="true" style="position: absolute; width: 0; height: 0; overflow: hidden;" version="1.1" xmlns="http://www.w3.org/2000/svg" xmlns:xlink="http://www.w3.org/1999/xlink">
<defs>
<symbol id="icon-video" viewBox="0 0 32 32">
<path fill="#fff" style="fill: var(--color1, #fff)" d="M9.229 0.4h13.543c1.3 0 2.35-0 3.199 0.069 0.875 0.071 1.643 0.222 2.354 0.585 1.129 0.575 2.047 1.493 2.622 2.622 0.362 0.711 0.513 1.479 0.584 2.354 0.069 0.849 0.069 1.898 0.069 3.199v13.543c0 1.301 0 2.35-0.069 3.199-0.071 0.875-0.222 1.643-0.584 2.354-0.575 1.129-1.493 2.047-2.622 2.622-0.711 0.362-1.479 0.513-2.354 0.584-0.849 0.069-1.898 0.069-3.199 0.069h-13.543c-1.301 0-2.349 0-3.199-0.069-0.875-0.071-1.643-0.222-2.354-0.584-1.129-0.575-2.047-1.493-2.622-2.622-0.362-0.711-0.513-1.479-0.585-2.354-0.069-0.849-0.069-1.899-0.069-3.199v-13.543c0-1.301-0-2.35 0.069-3.199 0.071-0.875 0.222-1.643 0.585-2.354 0.575-1.129 1.493-2.047 2.622-2.622 0.711-0.362 1.479-0.513 2.354-0.585 0.849-0.069 1.898-0.069 3.199-0.069zM6.225 2.861c-0.726 0.059-1.143 0.17-1.459 0.331-0.677 0.345-1.228 0.896-1.573 1.573-0.161 0.316-0.272 0.733-0.331 1.459-0.060 0.74-0.061 1.691-0.061 3.055v13.44c0 1.364 0.001 2.315 0.061 3.055 0.059 0.726 0.17 1.144 0.331 1.46 0.345 0.677 0.896 1.228 1.573 1.573 0.316 0.161 0.733 0.272 1.459 0.331 0.74 0.060 1.691 0.061 3.055 0.061h13.44c1.364 0 2.315-0.001 3.055-0.061 0.726-0.059 1.144-0.17 1.46-0.331 0.677-0.345 1.228-0.896 1.573-1.573 0.161-0.316 0.272-0.733 0.331-1.46 0.060-0.74 0.061-1.691 0.061-3.055v-13.44c0-1.364-0.001-2.315-0.061-3.055-0.059-0.726-0.17-1.143-0.331-1.459-0.345-0.677-0.896-1.228-1.573-1.573-0.316-0.161-0.733-0.272-1.46-0.331-0.74-0.060-1.691-0.061-3.055-0.061h-13.44c-1.364 0-2.315 0.001-3.055 0.061zM14.583 9.034c0.013 0.008 0.025 0.016 0.038 0.025l7.589 4.878c0.248 0.159 0.497 0.32 0.693 0.472 0.205 0.16 0.493 0.416 0.661 0.813 0.21 0.498 0.21 1.059 0 1.557-0.168 0.397-0.456 0.653-0.661 0.813-0.196 0.152-0.445 0.313-0.693 0.472l-7.627 4.903c-0.288 0.185-0.569 0.366-0.813 0.493-0.245 0.127-0.638 0.305-1.113 0.271-0.579-0.041-1.111-0.332-1.459-0.796-0.285-0.381-0.349-0.808-0.374-1.083-0.025-0.273-0.025-0.608-0.025-0.95v-9.756c0-0.015 0-0.030 0-0.045-0-0.342-0-0.677 0.025-0.95 0.025-0.275 0.089-0.701 0.374-1.082 0.348-0.464 0.88-0.755 1.459-0.796 0.475-0.034 0.868 0.143 1.113 0.271 0.243 0.127 0.525 0.308 0.813 0.493zM13.2 10.998c-0 0.046-0 0.095-0 0.146v9.711c0 0.051 0 0.1 0 0.146 0.039-0.025 0.080-0.051 0.123-0.079l7.553-4.855c0.037-0.024 0.072-0.046 0.105-0.067-0.033-0.021-0.068-0.044-0.105-0.067l-7.553-4.855c-0.043-0.028-0.084-0.054-0.123-0.079z"></path>
</symbol>
<symbol id="icon-rates" viewBox="0 0 32 32">
<path fill="#fff" style="fill: var(--color1, #fff)" d="M16 2.545c-7.431 0-13.455 6.024-13.455 13.455s6.024 13.455 13.455 13.455c7.431 0 13.455-6.024 13.455-13.455s-6.024-13.455-13.455-13.455zM0.364 16c0-8.636 7.001-15.636 15.636-15.636s15.636 7.001 15.636 15.636c0 8.636-7.001 15.636-15.636 15.636s-15.636-7.001-15.636-15.636zM16 7.636c0.602 0 1.091 0.488 1.091 1.091v14.545c0 0.602-0.488 1.091-1.091 1.091s-1.091-0.488-1.091-1.091v-14.545c0-0.603 0.488-1.091 1.091-1.091zM21.818 13.455c0.602 0 1.091 0.488 1.091 1.091v8.727c0 0.602-0.488 1.091-1.091 1.091s-1.091-0.488-1.091-1.091v-8.727c0-0.602 0.488-1.091 1.091-1.091zM10.182 16.364c0.602 0 1.091 0.488 1.091 1.091v5.818c0 0.602-0.488 1.091-1.091 1.091s-1.091-0.488-1.091-1.091v-5.818c0-0.602 0.488-1.091 1.091-1.091z"></path>
</symbol>
<symbol id="icon-news" viewBox="0 0 32 32">
<path fill="#fff" style="fill: var(--color1, #fff)" d="M16 2.545c-7.431 0-13.455 6.024-13.455 13.455s6.024 13.455 13.455 13.455c7.431 0 13.455-6.024 13.455-13.455s-6.024-13.455-13.455-13.455zM0.364 16c0-8.636 7.001-15.636 15.636-15.636s15.636 7.001 15.636 15.636c0 8.636-7.001 15.636-15.636 15.636s-15.636-7.001-15.636-15.636zM16 6.909c-5.021 0-9.091 4.070-9.091 9.091 0 1.933 0.602 3.722 1.629 5.194 0.345 0.494 0.223 1.174-0.271 1.519s-1.174 0.224-1.519-0.271c-1.274-1.826-2.021-4.049-2.021-6.442 0-6.226 5.047-11.273 11.273-11.273 0.679 0 1.344 0.060 1.991 0.175 0.593 0.106 0.988 0.672 0.882 1.265s-0.672 0.988-1.265 0.882c-0.521-0.093-1.058-0.142-1.608-0.142zM23.317 8.683c0.426 0.426 0.426 1.117 0 1.543l-4.919 4.919c0.095 0.267 0.147 0.555 0.147 0.855 0 1.406-1.14 2.545-2.545 2.545s-2.545-1.14-2.545-2.545c0-1.406 1.14-2.545 2.545-2.545 0.3 0 0.588 0.052 0.855 0.147l4.919-4.919c0.426-0.426 1.117-0.426 1.543 0zM25.715 12.752c0.589-0.129 1.17 0.244 1.298 0.833 0.17 0.779 0.259 1.587 0.259 2.415 0 2.394-0.747 4.616-2.021 6.442-0.345 0.494-1.025 0.615-1.519 0.271s-0.615-1.025-0.271-1.519c1.027-1.472 1.629-3.261 1.629-5.194 0-0.67-0.072-1.322-0.209-1.949-0.129-0.589 0.244-1.17 0.833-1.299z"></path>
</symbol>
<symbol id="icon-hot" viewBox="0 0 25 32">
<path fill="#fff" style="fill: var(--color1, #fff)" d="M11.219 31.697c-2.189-1.172-3.821-2.9-4.506-4.771l-0.208-0.569-3.261-0.015c-1.794-0.008-3.253-0.035-3.243-0.059s0.018-5.243 0.018-11.597v-11.553l0.335 0.154c1.809 0.83 3.622 2.468 4.713 4.259 0.826 1.356 1.195 2.563 1.468 4.795 0.079 0.646 0.193 1.505 0.255 1.909 0.1 0.661 0.461 3.277 0.462 3.35 0 0.016-0.186 0.032-0.413 0.035-0.768 0.011-1.573 0.454-1.876 1.031-0.399 0.762 0.031 1.493 1.203 2.043 0.076 0.036 0.060 0.144-0.085 0.553-0.099 0.28-0.202 0.63-0.229 0.778-0.047 0.255-0.059 0.267-0.237 0.231-0.706-0.145-1.725-0.77-2.156-1.32-0.63-0.805-0.795-1.914-0.412-2.764 0.27-0.6 0.787-1.158 1.438-1.553 0.291-0.177 0.546-0.356 0.565-0.398s-0.024-0.473-0.097-0.958c-0.073-0.485-0.231-1.622-0.351-2.527-0.293-2.219-0.624-3.297-1.399-4.56-0.316-0.515-1.12-1.576-1.197-1.579-0.030-0.002-0.046 4.103-0.036 9.121l0.018 9.124 8.062 0.030-0.020 0.719-0.020 0.719-0.662 0.017c-0.364 0.009-0.662 0.040-0.662 0.068 0 0.165 0.48 1.213 0.737 1.608 0.318 0.49 1.171 1.454 1.322 1.495 0.071 0.019 0.089-0.499 0.088-2.464-0.001-2.286-0.012-2.507-0.133-2.725-0.168-0.303-0.713-0.697-1.143-0.827-0.184-0.056-0.357-0.116-0.385-0.136-0.053-0.036 0.030-0.625 0.164-1.165 0.073-0.295 0.085-0.307 0.268-0.272 0.329 0.063 0.958 0.361 1.608 0.762l0.624 0.384 0.341-0.232c0.807-0.549 1.883-1.031 2.031-0.91 0.059 0.049 0.278 1.062 0.279 1.29 0 0.099-0.105 0.167-0.483 0.312-0.552 0.212-0.831 0.407-1.027 0.72-0.128 0.205-0.137 0.374-0.137 2.779v2.561l0.318-0.294c0.691-0.638 1.253-1.455 1.572-2.284 0.103-0.268 0.188-0.526 0.188-0.573 0-0.068-0.129-0.085-0.645-0.085h-0.645v-1.469h8.021v-9.139c0-5.026-0.013-9.139-0.028-9.139-0.062 0-0.931 1.149-1.191 1.575-0.706 1.158-1.086 2.27-1.289 3.773-0.076 0.566-0.242 1.744-0.368 2.619s-0.21 1.633-0.186 1.684c0.024 0.051 0.215 0.187 0.424 0.301 2.62 1.431 2.268 4.546-0.633 5.599-0.22 0.080-0.432 0.137-0.471 0.126s-0.162-0.309-0.274-0.664c-0.112-0.354-0.223-0.697-0.246-0.762-0.033-0.093 0.021-0.147 0.253-0.254 0.779-0.362 1.139-0.801 1.139-1.391 0-0.452-0.166-0.751-0.6-1.078-0.418-0.315-0.896-0.495-1.366-0.513-0.197-0.008-0.37-0.030-0.386-0.050-0.042-0.054 0.042-0.756 0.349-2.914 0.154-1.083 0.316-2.286 0.359-2.674 0.264-2.346 0.983-4.088 2.387-5.784 0.625-0.755 1.855-1.814 2.734-2.353 0.611-0.375 1.246-0.708 1.35-0.708 0.026 0 0.047 5.223 0.047 11.607v11.607h-3.295c-3.214 0-3.294 0.003-3.294 0.114 0 0.194-0.474 1.314-0.739 1.746-0.859 1.4-2.562 2.881-4.138 3.6l-0.401 0.183-0.566-0.303zM6.342 23.521c0.053-0.8 0.269-1.751 0.562-2.475 0.398-0.983 1.249-2.237 1.977-2.917 0.318-0.297 0.505-0.576 0.762-1.136 0.714-1.556 0.968-3.429 0.834-6.151-0.136-2.756-0.289-6.708-0.289-7.452-0.001-1.189 0.303-2.063 0.997-2.874 0.566-0.662 0.6-0.666 1.089-0.132 0.633 0.691 1.030 1.563 1.109 2.436 0.023 0.259-0.032 2.149-0.124 4.202-0.265 5.92-0.223 7.049 0.329 8.851 0.338 1.102 0.734 1.876 1.208 2.36 1.49 1.521 2.348 3.335 2.459 5.201l0.045 0.749h-2.099l-0.001-0.338c-0.001-0.439-0.24-1.687-0.431-2.248-0.196-0.576-0.758-1.539-1.26-2.158-0.443-0.547-1.559-1.545-1.727-1.545-0.059 0-0.418 0.259-0.798 0.577-1.028 0.86-1.687 1.801-2.117 3.026-0.197 0.561-0.47 1.956-0.47 2.406l-0 0.279h-2.099l0.044-0.661z"></path>
</symbol>
<symbol id="icon-calendar" viewBox="0 0 29 32">
<path fill="#fff" style="fill: var(--color1, #fff)" d="M8.727 0.364c0.602 0 1.091 0.488 1.091 1.091v1.818h9.455v-1.818c0-0.603 0.488-1.091 1.091-1.091s1.091 0.488 1.091 1.091v1.819c0.843 0.002 1.554 0.013 2.155 0.062 0.795 0.065 1.493 0.202 2.14 0.531 1.026 0.523 1.861 1.357 2.384 2.384 0.329 0.646 0.466 1.345 0.531 2.14 0.063 0.772 0.063 1.726 0.063 2.908v12.312c0 1.182 0 2.136-0.063 2.908-0.065 0.795-0.202 1.493-0.531 2.14-0.523 1.026-1.357 1.861-2.384 2.384-0.646 0.329-1.345 0.466-2.14 0.531-0.772 0.063-1.726 0.063-2.908 0.063h-12.312c-1.182 0-2.136 0-2.908-0.063-0.795-0.065-1.494-0.202-2.14-0.531-1.026-0.523-1.861-1.357-2.384-2.384-0.329-0.646-0.466-1.345-0.531-2.14-0.063-0.772-0.063-1.726-0.063-2.908v-12.312c0-1.182-0-2.136 0.063-2.908 0.065-0.795 0.202-1.494 0.531-2.14 0.523-1.026 1.357-1.861 2.384-2.384 0.646-0.329 1.345-0.466 2.14-0.531 0.601-0.049 1.312-0.060 2.155-0.062v-1.819c0-0.603 0.488-1.091 1.091-1.091zM7.636 5.455c-0.828 0.003-1.459 0.013-1.977 0.055-0.66 0.054-1.039 0.154-1.327 0.301-0.616 0.314-1.116 0.814-1.43 1.43-0.146 0.287-0.247 0.667-0.301 1.327-0.055 0.673-0.056 1.537-0.056 2.777v0.655h24v-0.655c0-1.24-0.001-2.104-0.056-2.777-0.054-0.66-0.154-1.039-0.301-1.327-0.314-0.616-0.815-1.116-1.43-1.43-0.287-0.146-0.667-0.247-1.327-0.301-0.518-0.042-1.149-0.053-1.977-0.055v1.817c0 0.603-0.488 1.091-1.091 1.091s-1.091-0.488-1.091-1.091v-1.818h-9.455v1.818c0 0.603-0.488 1.091-1.091 1.091s-1.091-0.488-1.091-1.091v-1.817zM26.545 14.182h-24v9.382c0 1.24 0.001 2.104 0.056 2.777 0.054 0.66 0.155 1.040 0.301 1.327 0.314 0.616 0.814 1.116 1.43 1.43 0.287 0.146 0.667 0.247 1.327 0.301 0.673 0.055 1.537 0.056 2.777 0.056h12.218c1.24 0 2.104-0.001 2.777-0.056 0.66-0.054 1.040-0.154 1.327-0.301 0.616-0.314 1.116-0.815 1.43-1.43 0.146-0.287 0.247-0.667 0.301-1.327 0.055-0.673 0.056-1.537 0.056-2.777v-9.382zM15.060 16.493c0.355 0.19 0.576 0.56 0.576 0.962v6.182h0.727c0.602 0 1.091 0.488 1.091 1.091s-0.488 1.091-1.091 1.091h-3.636c-0.602 0-1.091-0.488-1.091-1.091s0.488-1.091 1.091-1.091h0.727v-4.143l-0.486 0.324c-0.501 0.334-1.179 0.199-1.513-0.303s-0.199-1.179 0.303-1.513l2.182-1.455c0.335-0.223 0.765-0.244 1.12-0.054z"></path>
</symbol>
</defs>
</svg>
