<svg aria-hidden="true" style="position: absolute; width: 0; height: 0; overflow: hidden;" version="1.1" xmlns="http://www.w3.org/2000/svg" xmlns:xlink="http://www.w3.org/1999/xlink">
<defs>
<symbol id="icon-play" viewBox="0 0 28 32">
<path fill="#fff" style="fill: var(--color1, #fff)" opacity="0.75" d="M27.714 15.505c0.381 0.22 0.381 0.77 0 0.99l-26.571 15.341c-0.381 0.22-0.857-0.055-0.857-0.495v-30.682c0-0.44 0.476-0.715 0.857-0.495l26.571 15.341z"></path>
</symbol>
<symbol id="icon-email" viewBox="0 0 38 32">
<path fill="#fff" style="fill: var(--color1, #fff)" d="M9.947 1.417h17.44c1.355 0 2.447-0 3.332 0.072 0.911 0.074 1.711 0.232 2.452 0.609 1.176 0.599 2.132 1.555 2.731 2.731 0.371 0.728 0.529 1.515 0.605 2.407 0.085 0.231 0.098 0.478 0.044 0.711 0.032 0.752 0.032 1.633 0.032 2.665v10.774c0 1.355 0 2.447-0.072 3.332-0.074 0.911-0.232 1.711-0.609 2.452-0.599 1.176-1.555 2.132-2.731 2.731-0.74 0.377-1.541 0.535-2.452 0.609-0.885 0.072-1.978 0.072-3.332 0.072h-17.44c-1.355 0-2.447 0-3.332-0.072-0.911-0.074-1.711-0.232-2.452-0.609-1.176-0.599-2.132-1.555-2.731-2.731-0.377-0.74-0.534-1.541-0.609-2.452-0.072-0.885-0.072-1.978-0.072-3.332v-10.774c0-1.033-0-1.913 0.032-2.665-0.054-0.233-0.041-0.48 0.044-0.711 0.076-0.893 0.234-1.679 0.605-2.407 0.599-1.176 1.555-2.132 2.731-2.731 0.74-0.377 1.541-0.534 2.452-0.609 0.885-0.072 1.978-0.072 3.332-0.072zM3.25 10.068c-0 0.191-0 0.39-0 0.599v10.667c0 1.421 0.001 2.411 0.064 3.182 0.062 0.756 0.177 1.191 0.345 1.52 0.36 0.706 0.933 1.279 1.639 1.639 0.329 0.168 0.764 0.283 1.52 0.345 0.771 0.063 1.761 0.064 3.182 0.064h17.333c1.421 0 2.411-0.001 3.182-0.064 0.756-0.062 1.191-0.177 1.52-0.345 0.706-0.359 1.279-0.933 1.639-1.639 0.168-0.329 0.283-0.764 0.345-1.52 0.063-0.771 0.064-1.761 0.064-3.182v-10.667c0-0.209 0-0.408-0-0.599l-11.641 8.149c-0.057 0.040-0.112 0.079-0.168 0.118-0.936 0.656-1.67 1.171-2.499 1.378-0.728 0.181-1.489 0.181-2.217 0-0.829-0.207-1.563-0.721-2.499-1.378-0.055-0.039-0.111-0.078-0.168-0.118l-11.641-8.149zM33.979 7.089c-0.066-0.521-0.168-0.858-0.304-1.125-0.36-0.706-0.933-1.279-1.639-1.639-0.329-0.168-0.764-0.283-1.52-0.345-0.771-0.063-1.761-0.064-3.182-0.064h-17.333c-1.421 0-2.411 0.001-3.182 0.064-0.756 0.062-1.191 0.177-1.52 0.345-0.706 0.36-1.279 0.933-1.639 1.639-0.136 0.267-0.238 0.604-0.304 1.125l12.97 9.079c1.187 0.831 1.517 1.038 1.838 1.118 0.331 0.082 0.677 0.082 1.008 0 0.32-0.080 0.651-0.287 1.838-1.118l12.97-9.079z"></path>
</symbol>
<symbol id="icon-phone" viewBox="0 0 30 32">
<path fill="#fff" style="fill: var(--color1, #fff)" d="M7.434 3.317c-0.526-0.266-1.146-0.266-1.672 0-0.224 0.113-0.471 0.34-1.32 1.189l-0.234 0.234c-0.819 0.819-1.084 1.097-1.293 1.469zM4.76 1.334c1.156-0.585 2.522-0.585 3.678 0 0.585 0.296 1.1 0.811 1.764 1.477 0.041 0.041 0.082 0.082 0.124 0.124l0.289 0.289c0.028 0.028 0.055 0.055 0.082 0.082 0.438 0.438 0.776 0.775 1.010 1.136v0c0.878 1.35 0.878 3.091 0 4.441-0.234 0.361-0.572 0.698-1.010 1.136-0.027 0.027-0.054 0.054-0.082 0.082-0.090 0.090-0.138 0.138-0.174 0.176-0.016 0.017-0.024 0.027-0.029 0.032l-0.004 0.005-0.001 0.001c0 0 0 0 0 0-0.053 0.074-0.080 0.231-0.054 0.319l0 0c0.001 0.004 0.004 0.012 0.015 0.039 0.016 0.037 0.039 0.086 0.087 0.185 0.978 2.036 2.311 3.946 4.001 5.636s3.6 3.023 5.636 4.001v0c0.099 0.047 0.147 0.070 0.185 0.087 0.028 0.012 0.035 0.014 0.039 0.015 0.088 0.026 0.245-0.001 0.319-0.054l0.001-0.001 0.005-0.004c0.005-0.004 0.015-0.013 0.032-0.029 0.038-0.036 0.087-0.084 0.177-0.174 0.028-0.028 0.055-0.055 0.082-0.082 0.438-0.438 0.775-0.776 1.136-1.010 1.35-0.878 3.091-0.878 4.441 0 0.361 0.235 0.698 0.572 1.136 1.010 0.027 0.027 0.054 0.054 0.082 0.082l0.289 0.289c0.042 0.042 0.083 0.083 0.124 0.124 0.665 0.664 1.18 1.179 1.476 1.764 0.585 1.156 0.585 2.522 0 3.678-0.296 0.585-0.811 1.1-1.476 1.764-0.041 0.041-0.082 0.082-0.124 0.124l-0.234 0.233c-0.028 0.028-0.056 0.056-0.084 0.084-0.705 0.706-1.199 1.2-1.868 1.576-0.759 0.426-1.867 0.715-2.737 0.712-0.766-0.002-1.318-0.159-2.097-0.38l-0.069-0.020c-4.671-1.326-9.079-3.828-12.754-7.503s-6.177-8.083-7.503-12.755c-0.007-0.023-0.013-0.046-0.020-0.069-0.221-0.78-0.378-1.332-0.381-2.097-0.003-0.871 0.285-1.978 0.712-2.737v0c0.376-0.668 0.87-1.163 1.576-1.868 0.028-0.028 0.056-0.055 0.084-0.084l0.234-0.234c0.042-0.042 0.083-0.083 0.124-0.124 0.664-0.665 1.179-1.18 1.764-1.477v0zM7.434 3.317l1.32 1.189c-0.849-0.849-1.095-1.076-1.32-1.189zM8.754 4.506v0zM9.042 4.795l0.8 0.857c-0.090-0.138-0.242-0.299-0.8-0.857zM9.843 5.652v2.019c0.399-0.614 0.399-1.405 0-2.019zM2.916 6.209c-0.239 0.425-0.429 1.155-0.427 1.642 0.001 0.435 0.073 0.71 0.316 1.566 1.225 4.316 3.536 8.39 6.937 11.79s7.474 5.712 11.79 6.937c0.856 0.243 1.131 0.314 1.566 0.316 0.487 0.001 1.218-0.188 1.642-0.427 0.372-0.209 0.65-0.475 1.469-1.294l0.234-0.234c0.849-0.849 1.076-1.095 1.189-1.32 0.266-0.526 0.266-1.146 0-1.672-0.113-0.224-0.34-0.47-1.189-1.319l-0.289-0.289c-0.558-0.558-0.719-0.711-0.857-0.8-0.614-0.399-1.405-0.399-2.019 0-0.138 0.090-0.299 0.242-0.857 0.8-0.011 0.011-0.021 0.022-0.033 0.033-0.137 0.137-0.283 0.284-0.459 0.41v0c-0.629 0.451-1.492 0.598-2.235 0.381-0.207-0.060-0.377-0.142-0.531-0.217-0.011-0.005-0.022-0.011-0.033-0.016-2.259-1.085-4.375-2.563-6.245-4.433s-3.348-3.986-4.433-6.245v-0c-0.005-0.011-0.010-0.022-0.016-0.033-0.075-0.155-0.156-0.324-0.216-0.531-0.217-0.743-0.069-1.606 0.381-2.235h0c0.126-0.176 0.273-0.323 0.41-0.459 0.011-0.011 0.022-0.022 0.033-0.033 0.558-0.558 0.711-0.719 0.8-0.857v0z"></path>
</symbol>
<symbol id="icon-viewers" viewBox="0 0 43 32">
<path fill="#fff" style="fill: var(--color1, #fff)" d="M11.020 8.979c-2.727 2.276-4.629 4.944-5.59 6.465-0.131 0.208-0.188 0.299-0.225 0.371-0.021 0.041-0.027 0.058-0.032 0.079-0 0.003-0.001 0.010-0.002 0.020-0.002 0.023-0.004 0.052-0.004 0.086s0.002 0.063 0.004 0.086c0.001 0.010 0.002 0.017 0.002 0.020 0.005 0.021 0.011 0.038 0.032 0.079 0.038 0.072 0.094 0.163 0.225 0.371 0.96 1.521 2.863 4.189 5.59 6.465 2.724 2.273 6.189 4.090 10.315 4.090s7.591-1.817 10.314-4.090c2.727-2.276 4.63-4.944 5.59-6.465 0.131-0.208 0.187-0.299 0.225-0.371 0.021-0.041 0.027-0.058 0.032-0.079 0.001-0.003 0.001-0.010 0.002-0.020 0.002-0.023 0.003-0.052 0.003-0.086s-0.001-0.063-0.003-0.086c-0.001-0.010-0.002-0.017-0.002-0.020-0.005-0.021-0.011-0.038-0.032-0.079-0.038-0.072-0.094-0.163-0.225-0.371-0.96-1.521-2.863-4.189-5.59-6.465-2.723-2.273-6.189-4.091-10.314-4.091s-7.591 1.817-10.315 4.091zM9.311 6.932c3.023-2.523 7.073-4.71 12.023-4.71s9 2.187 12.023 4.71c3.020 2.521 5.095 5.441 6.136 7.088 0.013 0.020 0.026 0.041 0.039 0.062 0.211 0.333 0.445 0.701 0.564 1.223 0.096 0.418 0.096 0.972 0 1.39-0.12 0.522-0.353 0.89-0.564 1.223-0.013 0.021-0.026 0.041-0.039 0.062-1.041 1.647-3.116 4.567-6.136 7.088-3.023 2.523-7.073 4.71-12.023 4.71s-9-2.187-12.023-4.71c-3.020-2.521-5.095-5.441-6.136-7.088-0.013-0.020-0.026-0.041-0.039-0.062-0.211-0.333-0.445-0.701-0.564-1.223-0.096-0.418-0.096-0.972 0-1.39 0.12-0.522 0.353-0.89 0.564-1.223 0.013-0.021 0.026-0.041 0.039-0.062 1.040-1.647 3.116-4.567 6.136-7.088zM21.334 12c-2.209 0-4 1.791-4 4s1.791 4 4 4c2.209 0 4-1.791 4-4s-1.791-4-4-4zM14.667 16c0-3.682 2.985-6.667 6.667-6.667s6.667 2.985 6.667 6.667c0 3.682-2.985 6.667-6.667 6.667s-6.667-2.985-6.667-6.667z"></path>
</symbol>
<symbol id="icon-menu-event-type" viewBox="0 0 32 32">
<path fill="#fff" style="fill: var(--color1, #fff)" d="M4.998 1.556c-0.381-0-0.732-0-1.025 0.024-0.316 0.026-0.661 0.085-1.002 0.259-0.488 0.249-0.884 0.645-1.133 1.133-0.174 0.341-0.233 0.687-0.259 1.002-0.024 0.293-0.024 0.643-0.024 1.025 0 0.013 0 0.026 0 0.039v5.668c-0 0.381-0 0.732 0.024 1.025 0.026 0.316 0.085 0.661 0.259 1.002 0.249 0.488 0.645 0.884 1.133 1.133 0.341 0.174 0.687 0.233 1.002 0.259 0.293 0.024 0.643 0.024 1.025 0.024h5.707c0.381 0 0.732 0 1.025-0.024 0.316-0.026 0.661-0.085 1.002-0.259 0.488-0.249 0.884-0.645 1.133-1.133 0.174-0.341 0.233-0.687 0.259-1.002 0.024-0.293 0.024-0.643 0.024-1.025v-5.707c0-0.381 0-0.732-0.024-1.025-0.026-0.316-0.085-0.661-0.259-1.002-0.249-0.488-0.645-0.884-1.133-1.133-0.341-0.174-0.687-0.233-1.002-0.259-0.293-0.024-0.643-0.024-1.025-0.024h-5.668c-0.013 0-0.026 0-0.039 0zM3.972 3.822l0.002-0.001c-0.002 0.001-0.002 0.001-0.002 0.001zM3.975 3.82c0.013-0.004 0.062-0.017 0.179-0.026 0.191-0.016 0.449-0.017 0.883-0.017h5.63c0.433 0 0.691 0.001 0.883 0.017 0.117 0.010 0.166 0.022 0.179 0.026 0.066 0.035 0.12 0.089 0.155 0.155 0.004 0.013 0.017 0.062 0.026 0.179 0.016 0.191 0.017 0.449 0.017 0.883v5.63c0 0.433-0.001 0.691-0.017 0.883-0.010 0.117-0.022 0.166-0.026 0.179-0.035 0.066-0.089 0.12-0.155 0.155-0.013 0.004-0.062 0.017-0.179 0.026-0.191 0.016-0.449 0.016-0.883 0.016h-5.63c-0.433 0-0.691-0.001-0.883-0.016-0.117-0.010-0.166-0.022-0.179-0.026-0.066-0.035-0.12-0.089-0.155-0.155-0.004-0.013-0.017-0.062-0.026-0.179-0.016-0.191-0.017-0.449-0.017-0.883v-5.63c0-0.433 0.001-0.691 0.017-0.883 0.010-0.117 0.022-0.166 0.026-0.179 0.035-0.066 0.089-0.12 0.155-0.155zM3.822 3.972l-0.001 0.002c0.001-0.001 0.001-0.002 0.001-0.002zM3.822 11.732l-0.001-0.002c0.001 0.002 0.001 0.002 0.001 0.002zM3.972 11.882l0.002 0.001c-0.001-0.001-0.002-0.001-0.002-0.001zM11.732 11.882l-0.002 0.001c0.002-0.001 0.002-0.001 0.002-0.001zM11.882 11.732l0.001-0.002c-0.001 0.001-0.001 0.002-0.001 0.002zM11.882 3.972l0.001 0.002c-0.001-0.002-0.001-0.002-0.001-0.002zM11.73 3.821l0.002 0.001c0-0-0.001-0-0.002-0.001zM21.295 1.556c-0.381-0-0.732-0-1.025 0.024-0.316 0.026-0.661 0.085-1.003 0.259-0.488 0.249-0.884 0.645-1.133 1.133-0.174 0.341-0.233 0.687-0.259 1.002-0.024 0.293-0.024 0.643-0.024 1.025v5.707c0 0.381-0 0.732 0.024 1.025 0.026 0.316 0.085 0.661 0.259 1.002 0.249 0.488 0.645 0.884 1.133 1.133 0.341 0.174 0.687 0.233 1.003 0.259 0.293 0.024 0.643 0.024 1.025 0.024h5.707c0.381 0 0.732 0 1.025-0.024 0.316-0.026 0.661-0.085 1.002-0.259 0.488-0.249 0.884-0.645 1.133-1.133 0.174-0.341 0.233-0.687 0.259-1.002 0.024-0.293 0.024-0.643 0.024-1.025v-5.707c0-0.381 0-0.732-0.024-1.025-0.026-0.316-0.085-0.661-0.259-1.002-0.249-0.488-0.645-0.884-1.133-1.133-0.341-0.174-0.687-0.233-1.002-0.259-0.293-0.024-0.643-0.024-1.025-0.024h-5.707zM20.268 3.822l0.002-0.001c-0.002 0.001-0.002 0.001-0.002 0.001zM20.272 3.82c0.013-0.004 0.062-0.017 0.179-0.026 0.191-0.016 0.449-0.017 0.883-0.017h5.63c0.433 0 0.691 0.001 0.883 0.017 0.117 0.010 0.166 0.022 0.179 0.026 0.066 0.035 0.12 0.089 0.155 0.155 0.004 0.013 0.017 0.062 0.026 0.179 0.016 0.191 0.017 0.449 0.017 0.883v5.63c0 0.433-0.001 0.691-0.017 0.883-0.009 0.117-0.022 0.166-0.026 0.179-0.035 0.066-0.089 0.12-0.155 0.155-0.013 0.004-0.062 0.017-0.179 0.026-0.191 0.016-0.449 0.016-0.883 0.016h-5.63c-0.433 0-0.691-0.001-0.883-0.016-0.117-0.010-0.166-0.022-0.179-0.026-0.066-0.035-0.12-0.089-0.155-0.155-0.004-0.013-0.017-0.062-0.026-0.179-0.015-0.191-0.016-0.449-0.016-0.883v-5.63c0-0.433 0.001-0.691 0.016-0.883 0.010-0.117 0.022-0.166 0.026-0.179 0.035-0.066 0.089-0.12 0.155-0.155zM20.118 3.972l-0.001 0.002c0.001-0.001 0.001-0.002 0.001-0.002zM20.118 11.732l-0.001-0.002c0.001 0.002 0.001 0.002 0.001 0.002zM20.268 11.882l0.002 0.001c-0.001-0.001-0.002-0.001-0.002-0.001zM28.028 11.882l-0.002 0.001c0.002-0.001 0.002-0.001 0.002-0.001zM28.178 11.732l0.001-0.002c-0.001 0.001-0.001 0.002-0.001 0.002zM28.178 3.972l0.001 0.002c-0.001-0.002-0.001-0.002-0.001-0.002zM28.026 3.821l0.002 0.001c0-0-0.001-0-0.002-0.001zM4.998 17.852c-0.381 0-0.732-0-1.025 0.024-0.316 0.026-0.661 0.085-1.002 0.259-0.488 0.249-0.884 0.645-1.133 1.133-0.174 0.341-0.233 0.687-0.259 1.003-0.024 0.293-0.024 0.643-0.024 1.025v5.707c-0 0.381-0 0.732 0.024 1.025 0.026 0.316 0.085 0.661 0.259 1.002 0.249 0.488 0.645 0.884 1.133 1.133 0.341 0.174 0.687 0.233 1.002 0.259 0.293 0.024 0.643 0.024 1.025 0.024h5.707c0.381 0 0.732 0 1.025-0.024 0.316-0.026 0.661-0.085 1.002-0.259 0.488-0.249 0.884-0.645 1.133-1.133 0.174-0.341 0.233-0.687 0.259-1.002 0.024-0.293 0.024-0.643 0.024-1.025v-5.707c0-0.381 0-0.732-0.024-1.025-0.026-0.316-0.085-0.661-0.259-1.003-0.249-0.488-0.645-0.884-1.133-1.133-0.341-0.174-0.687-0.233-1.002-0.259-0.293-0.024-0.643-0.024-1.025-0.024h-5.707zM3.972 20.118l0.002-0.001c-0.002 0.001-0.002 0.001-0.002 0.001zM3.975 20.117c0.013-0.004 0.062-0.017 0.179-0.026 0.191-0.015 0.449-0.016 0.883-0.016h5.63c0.433 0 0.691 0.001 0.883 0.016 0.117 0.010 0.166 0.022 0.179 0.026 0.066 0.035 0.12 0.089 0.155 0.155 0.004 0.013 0.017 0.062 0.026 0.179 0.016 0.191 0.017 0.449 0.017 0.883v5.63c0 0.433-0.001 0.691-0.017 0.883-0.010 0.117-0.022 0.166-0.026 0.179-0.035 0.066-0.089 0.12-0.155 0.155-0.013 0.004-0.062 0.017-0.179 0.026-0.191 0.016-0.449 0.017-0.883 0.017h-5.63c-0.433 0-0.691-0.001-0.883-0.017-0.117-0.009-0.166-0.022-0.179-0.026-0.066-0.035-0.12-0.089-0.155-0.155-0.004-0.013-0.017-0.062-0.026-0.179-0.016-0.191-0.017-0.449-0.017-0.883v-5.63c0-0.433 0.001-0.691 0.017-0.883 0.010-0.117 0.022-0.166 0.026-0.179 0.035-0.066 0.089-0.12 0.155-0.155zM3.822 20.268l-0.001 0.002c0.001-0.001 0.001-0.002 0.001-0.002zM3.822 28.028l-0.001-0.002c0.001 0.002 0.001 0.002 0.001 0.002zM3.972 28.178l0.002 0.001c-0.001-0.001-0.002-0.001-0.002-0.001zM11.732 28.178l-0.002 0.001c0.002-0.001 0.002-0.001 0.002-0.001zM11.882 28.028l0.001-0.002c-0.001 0.001-0.001 0.002-0.001 0.002zM11.882 20.268l0.001 0.002c-0.001-0.002-0.001-0.002-0.001-0.002zM11.73 20.117l0.002 0.001c0 0-0.001-0-0.002-0.001zM21.294 17.852c-0.381 0-0.732-0-1.025 0.024-0.316 0.026-0.661 0.085-1.003 0.259-0.488 0.249-0.884 0.645-1.133 1.133-0.174 0.341-0.233 0.687-0.259 1.003-0.024 0.293-0.024 0.643-0.024 1.025v5.707c0 0.381-0 0.732 0.024 1.025 0.026 0.316 0.085 0.661 0.259 1.002 0.249 0.488 0.645 0.884 1.133 1.133 0.341 0.174 0.687 0.233 1.003 0.259 0.293 0.024 0.643 0.024 1.025 0.024h5.707c0.381 0 0.732 0 1.025-0.024 0.316-0.026 0.661-0.085 1.002-0.259 0.488-0.249 0.884-0.645 1.133-1.133 0.174-0.341 0.233-0.687 0.259-1.002 0.024-0.293 0.024-0.643 0.024-1.025v-5.707c0-0.381 0-0.732-0.024-1.025-0.026-0.316-0.085-0.661-0.259-1.003-0.249-0.488-0.645-0.884-1.133-1.133-0.341-0.174-0.687-0.233-1.002-0.259-0.293-0.024-0.643-0.024-1.025-0.024h-5.707zM20.268 20.118c0 0 0.001-0 0.002-0.001l-0.002 0.001zM20.272 20.117c0.013-0.004 0.062-0.017 0.179-0.026 0.191-0.015 0.449-0.016 0.883-0.016h5.63c0.433 0 0.691 0.001 0.883 0.016 0.117 0.010 0.166 0.022 0.179 0.026 0.066 0.035 0.12 0.089 0.155 0.155 0.004 0.013 0.017 0.062 0.026 0.179 0.016 0.191 0.017 0.449 0.017 0.883v5.63c0 0.433-0.001 0.691-0.017 0.883-0.009 0.117-0.022 0.166-0.026 0.179-0.035 0.066-0.089 0.12-0.155 0.155-0.013 0.004-0.062 0.017-0.179 0.026-0.191 0.016-0.449 0.017-0.883 0.017h-5.63c-0.433 0-0.691-0.001-0.883-0.017-0.117-0.009-0.166-0.022-0.179-0.026-0.066-0.035-0.12-0.089-0.155-0.155-0.004-0.013-0.017-0.062-0.026-0.179-0.015-0.191-0.016-0.449-0.016-0.883v-5.63c0-0.433 0.001-0.691 0.016-0.883 0.010-0.117 0.022-0.166 0.026-0.179 0.035-0.066 0.089-0.12 0.155-0.155zM20.118 20.268c0 0-0 0.001-0.001 0.002l0.001-0.002zM20.118 28.028c0 0-0-0.001-0.001-0.002l0.001 0.002zM20.268 28.178c0 0 0.001 0 0.002 0.001l-0.002-0.001zM28.028 28.178c0 0-0.001 0-0.002 0.001l0.002-0.001zM28.178 20.268c0 0 0 0.001 0.001 0.002l-0.001-0.002z"></path>
</symbol>
<symbol id="icon-totop" viewBox="0 0 32 32">
<path fill="#fff" style="fill: var(--color1, #fff)" d="M9.055 0h13.89c1.334 0 2.41-0 3.281 0.071 0.897 0.073 1.685 0.228 2.414 0.6 1.158 0.59 2.099 1.531 2.689 2.689 0.371 0.729 0.526 1.517 0.6 2.414 0.071 0.871 0.071 1.947 0.071 3.281v13.89c0 1.334 0 2.41-0.071 3.281-0.073 0.897-0.228 1.685-0.6 2.414-0.59 1.158-1.531 2.099-2.689 2.689-0.729 0.371-1.517 0.526-2.414 0.6-0.871 0.071-1.947 0.071-3.281 0.071h-13.89c-1.334 0-2.41 0-3.281-0.071-0.897-0.073-1.685-0.228-2.414-0.6-1.158-0.59-2.099-1.531-2.689-2.689-0.371-0.729-0.526-1.517-0.6-2.414-0.071-0.871-0.071-1.947-0.071-3.281v-13.89c0-1.334-0-2.41 0.071-3.281 0.073-0.897 0.228-1.685 0.6-2.414 0.59-1.158 1.531-2.099 2.689-2.689 0.729-0.371 1.517-0.526 2.414-0.6 0.871-0.071 1.947-0.071 3.281-0.071zM5.974 2.525c-0.745 0.061-1.173 0.174-1.497 0.339-0.695 0.354-1.26 0.919-1.614 1.614-0.165 0.324-0.279 0.752-0.339 1.497-0.062 0.759-0.063 1.734-0.063 3.133v13.785c0 1.399 0.001 2.374 0.063 3.133 0.061 0.745 0.174 1.173 0.339 1.497 0.354 0.695 0.919 1.26 1.614 1.614 0.324 0.165 0.752 0.279 1.497 0.339 0.759 0.062 1.734 0.063 3.133 0.063h13.785c1.399 0 2.374-0.001 3.133-0.063 0.745-0.061 1.173-0.174 1.497-0.339 0.695-0.354 1.26-0.919 1.614-1.614 0.165-0.324 0.279-0.752 0.339-1.497 0.062-0.759 0.063-1.734 0.063-3.133v-13.785c0-1.399-0.001-2.374-0.063-3.133-0.061-0.745-0.174-1.173-0.339-1.497-0.354-0.695-0.919-1.26-1.614-1.614-0.324-0.165-0.752-0.279-1.497-0.339-0.759-0.062-1.734-0.063-3.133-0.063h-13.785c-1.399 0-2.374 0.001-3.133 0.063zM15.13 8.566c0.481-0.481 1.26-0.481 1.741 0l6.564 6.564c0.481 0.481 0.481 1.26 0 1.741s-1.26 0.481-1.741 0l-4.463-4.463v10.157c0 0.68-0.551 1.231-1.231 1.231s-1.231-0.551-1.231-1.231v-10.157l-4.463 4.463c-0.481 0.481-1.26 0.481-1.741 0s-0.481-1.26 0-1.741l6.564-6.564z"></path>
</symbol>
<symbol id="icon-chevron_down" viewBox="0 0 32 32">
<path d="M7.293 11.293c0.391-0.391 1.024-0.391 1.414 0l7.293 7.293 7.293-7.293c0.39-0.391 1.024-0.391 1.414 0s0.391 1.024 0 1.414l-8 8c-0.39 0.391-1.024 0.391-1.414 0l-8-8c-0.391-0.391-0.391-1.024 0-1.414z"></path>
</symbol>
<symbol id="icon-right" viewBox="0 0 33 32">
<path fill="#fff" style="fill: var(--color1, #fff)" d="M18.391 7.057c0.521-0.521 1.365-0.521 1.886 0l8 8c0.521 0.521 0.521 1.365 0 1.886l-8 8c-0.521 0.521-1.365 0.521-1.886 0s-0.521-1.365 0-1.886l5.724-5.724h-18.114c-0.736 0-1.333-0.597-1.333-1.333s0.597-1.333 1.333-1.333h18.114l-5.724-5.724c-0.521-0.521-0.521-1.365 0-1.886z"></path>
</symbol>
</defs>
</svg>
