<svg aria-hidden="true" style="position: absolute; width: 0; height: 0; overflow: hidden;" version="1.1" xmlns="http://www.w3.org/2000/svg" xmlns:xlink="http://www.w3.org/1999/xlink">
<defs>
<symbol id="icon-totop" viewBox="0 0 32 32">
<path fill="#fff" style="fill: var(--color1, #fff)" d="M10.357 3h11.286c1.084 0 1.958 0 2.666 0.058 0.729 0.060 1.369 0.185 1.961 0.487 0.941 0.479 1.706 1.244 2.185 2.185 0.302 0.592 0.428 1.232 0.487 1.961 0.058 0.708 0.058 1.582 0.058 2.666v11.286c0 1.084 0 1.958-0.058 2.666-0.059 0.729-0.185 1.369-0.487 1.961-0.479 0.941-1.244 1.706-2.185 2.185-0.592 0.302-1.233 0.428-1.961 0.487-0.708 0.058-1.582 0.058-2.666 0.058h-11.286c-1.084 0-1.958 0-2.666-0.058-0.729-0.059-1.369-0.185-1.961-0.487-0.941-0.479-1.706-1.244-2.185-2.185-0.302-0.592-0.428-1.233-0.487-1.961-0.058-0.708-0.058-1.582-0.058-2.666v-11.286c0-1.084 0-1.958 0.058-2.666 0.060-0.729 0.185-1.369 0.487-1.961 0.479-0.941 1.244-1.706 2.185-2.185 0.592-0.302 1.232-0.428 1.961-0.487 0.708-0.058 1.582-0.058 2.666-0.058zM7.854 5.051c-0.605 0.049-0.953 0.142-1.216 0.276-0.564 0.288-1.023 0.747-1.311 1.311-0.134 0.263-0.226 0.611-0.276 1.216-0.050 0.617-0.051 1.409-0.051 2.546v11.2c0 1.137 0.001 1.929 0.051 2.546 0.049 0.605 0.142 0.953 0.276 1.216 0.288 0.564 0.747 1.023 1.311 1.311 0.263 0.134 0.611 0.226 1.216 0.276 0.617 0.050 1.409 0.051 2.546 0.051h11.2c1.137 0 1.929-0.001 2.546-0.051 0.605-0.049 0.953-0.142 1.216-0.276 0.564-0.288 1.023-0.747 1.311-1.311 0.134-0.263 0.226-0.611 0.276-1.216 0.050-0.617 0.051-1.409 0.051-2.546v-11.2c0-1.137-0.001-1.929-0.051-2.546-0.049-0.605-0.142-0.953-0.276-1.216-0.288-0.564-0.747-1.023-1.311-1.311-0.263-0.134-0.611-0.226-1.216-0.276-0.617-0.050-1.409-0.051-2.546-0.051h-11.2c-1.137 0-1.929 0.001-2.546 0.051zM15.293 9.96c0.391-0.391 1.024-0.391 1.414 0l5.333 5.333c0.391 0.391 0.391 1.024 0 1.414s-1.024 0.391-1.414 0l-3.626-3.626v8.252c0 0.552-0.448 1-1 1s-1-0.448-1-1v-8.252l-3.626 3.626c-0.391 0.391-1.024 0.391-1.414 0s-0.391-1.024 0-1.414l5.333-5.333z"></path>
</symbol>
<symbol id="icon-news" viewBox="0 0 32 32">
<path fill="#fff" style="fill: var(--color1, #fff)" d="M16 3.667c-6.811 0-12.333 5.522-12.333 12.333s5.522 12.333 12.333 12.333c6.811 0 12.333-5.522 12.333-12.333s-5.522-12.333-12.333-12.333zM1.667 16c0-7.916 6.417-14.333 14.333-14.333s14.333 6.417 14.333 14.333c0 7.916-6.417 14.333-14.333 14.333s-14.333-6.417-14.333-14.333zM16 7.667c-4.602 0-8.333 3.731-8.333 8.333 0 1.772 0.552 3.412 1.493 4.761 0.316 0.453 0.205 1.076-0.248 1.392s-1.076 0.205-1.392-0.248c-1.168-1.674-1.853-3.711-1.853-5.905 0-5.707 4.626-10.333 10.333-10.333 0.622 0 1.232 0.055 1.825 0.161 0.544 0.097 0.906 0.616 0.809 1.16s-0.616 0.906-1.16 0.809c-0.478-0.085-0.97-0.13-1.474-0.13zM22.707 9.293c0.391 0.391 0.391 1.024 0 1.414l-4.509 4.509c0.087 0.245 0.135 0.509 0.135 0.784 0 1.289-1.045 2.333-2.333 2.333s-2.333-1.045-2.333-2.333c0-1.289 1.045-2.333 2.333-2.333 0.275 0 0.539 0.048 0.784 0.135l4.509-4.509c0.391-0.391 1.024-0.391 1.414 0zM24.905 13.023c0.54-0.118 1.073 0.224 1.19 0.764 0.156 0.714 0.238 1.455 0.238 2.213 0 2.194-0.685 4.231-1.853 5.905-0.316 0.453-0.939 0.564-1.392 0.248s-0.564-0.939-0.248-1.392c0.941-1.349 1.493-2.989 1.493-4.761 0-0.614-0.066-1.212-0.192-1.787-0.118-0.539 0.224-1.072 0.764-1.19z"></path>
</symbol>
<symbol id="icon-hot" viewBox="0 0 32 32">
<path fill="#fff" style="fill: var(--color1, #fff)" d="M15.617 30.389c-2.007-1.075-3.503-2.659-4.13-4.373l-0.191-0.521-2.99-0.014c-1.644-0.008-2.982-0.032-2.973-0.054s0.016-4.806 0.016-10.631v-10.591l0.307 0.141c1.658 0.761 3.32 2.263 4.32 3.904 0.757 1.243 1.096 2.35 1.346 4.396 0.072 0.592 0.177 1.38 0.233 1.75 0.092 0.606 0.423 3.004 0.424 3.071 0 0.015-0.17 0.029-0.379 0.033-0.704 0.010-1.442 0.416-1.719 0.945-0.366 0.698 0.028 1.368 1.102 1.873 0.070 0.033 0.055 0.132-0.078 0.507-0.091 0.257-0.185 0.578-0.21 0.714-0.043 0.234-0.054 0.245-0.217 0.212-0.647-0.133-1.582-0.705-1.976-1.21-0.577-0.738-0.729-1.755-0.378-2.534 0.248-0.55 0.721-1.061 1.318-1.423 0.267-0.162 0.5-0.326 0.518-0.365s-0.022-0.434-0.089-0.878c-0.067-0.445-0.212-1.487-0.321-2.317-0.269-2.034-0.572-3.022-1.282-4.18-0.289-0.472-1.026-1.444-1.097-1.448-0.027-0.002-0.042 3.761-0.033 8.361l0.017 8.364 7.39 0.028-0.018 0.659-0.019 0.659-0.607 0.015c-0.334 0.009-0.607 0.037-0.607 0.063 0 0.151 0.44 1.112 0.675 1.474 0.292 0.45 1.073 1.333 1.212 1.371 0.065 0.018 0.082-0.457 0.081-2.258-0.001-2.095-0.011-2.298-0.122-2.498-0.154-0.278-0.653-0.639-1.047-0.758-0.169-0.051-0.327-0.107-0.353-0.124-0.048-0.033 0.028-0.573 0.15-1.068 0.067-0.27 0.078-0.281 0.246-0.249 0.301 0.058 0.879 0.331 1.474 0.698l0.572 0.352 0.312-0.212c0.739-0.503 1.726-0.945 1.862-0.834 0.054 0.045 0.255 0.973 0.255 1.183 0 0.091-0.097 0.153-0.443 0.286-0.506 0.194-0.762 0.373-0.942 0.66-0.118 0.188-0.125 0.343-0.125 2.547v2.347l0.291-0.269c0.633-0.585 1.148-1.334 1.441-2.094 0.095-0.246 0.172-0.482 0.172-0.525 0-0.062-0.119-0.078-0.591-0.078h-0.591v-1.347h7.353v-8.377c0-4.607-0.012-8.377-0.026-8.377-0.057 0-0.853 1.053-1.091 1.444-0.648 1.062-0.996 2.081-1.181 3.459-0.070 0.519-0.222 1.599-0.337 2.401s-0.192 1.497-0.17 1.543c0.022 0.047 0.197 0.171 0.389 0.276 2.402 1.312 2.079 4.167-0.58 5.132-0.202 0.073-0.396 0.125-0.432 0.116s-0.148-0.283-0.251-0.608c-0.103-0.325-0.204-0.639-0.225-0.699-0.030-0.085 0.019-0.134 0.232-0.233 0.714-0.332 1.044-0.734 1.044-1.275 0-0.414-0.153-0.688-0.55-0.988-0.383-0.289-0.822-0.453-1.252-0.47-0.181-0.007-0.34-0.028-0.354-0.046-0.039-0.050 0.038-0.693 0.319-2.671 0.141-0.993 0.289-2.096 0.329-2.451 0.242-2.151 0.901-3.748 2.188-5.302 0.573-0.692 1.701-1.663 2.506-2.157 0.561-0.344 1.142-0.649 1.237-0.649 0.024 0 0.043 4.788 0.043 10.64v10.64h-3.020c-2.946 0-3.020 0.003-3.020 0.105 0 0.178-0.435 1.204-0.678 1.6-0.787 1.283-2.348 2.641-3.793 3.3l-0.368 0.168-0.519-0.277zM11.147 22.895c0.048-0.733 0.246-1.605 0.516-2.269 0.365-0.901 1.145-2.051 1.812-2.674 0.291-0.272 0.463-0.528 0.699-1.042 0.654-1.426 0.887-3.143 0.764-5.639-0.124-2.526-0.265-6.149-0.265-6.831-0-1.090 0.278-1.891 0.914-2.635 0.519-0.607 0.55-0.611 0.998-0.121 0.58 0.633 0.944 1.433 1.017 2.233 0.021 0.237-0.030 1.97-0.114 3.852-0.243 5.427-0.204 6.462 0.302 8.113 0.309 1.010 0.673 1.719 1.107 2.163 1.366 1.395 2.152 3.057 2.254 4.768l0.041 0.687h-1.924l-0.001-0.31c-0.001-0.403-0.22-1.546-0.395-2.061-0.179-0.528-0.695-1.411-1.155-1.978-0.407-0.501-1.429-1.416-1.583-1.416-0.054 0-0.383 0.238-0.731 0.529-0.942 0.788-1.546 1.651-1.941 2.774-0.18 0.514-0.43 1.793-0.431 2.206l-0 0.256h-1.924l0.040-0.606z"></path>
</symbol>
</defs>
</svg>
